<svg id="visual" viewBox="0 0 900 600" width="900" height="600" xmlns="http://www.w3.org/2000/svg" xmlns:xlink="http://www.w3.org/1999/xlink" version="1.1"><rect x="0" y="0" width="900" height="600" fill="#000000"></rect><g transform="translate(466.60032671818493 309.06665711599294)"><path d="M58.3 -82.5C74.6 -68.3 86.3 -50.1 86.4 -32.2C86.5 -14.3 75.1 3.2 60.8 11.2C46.4 19.2 29.1 17.7 18.5 21.7C7.8 25.8 3.9 35.4 -10.2 49.4C-24.3 63.4 -48.6 81.9 -72.4 82.1C-96.1 82.3 -119.4 64.3 -119.6 43.6C-119.8 22.9 -97 -0.6 -75.1 -10.9C-53.1 -21.1 -32.1 -18.2 -19.7 -33.6C-7.4 -49.1 -3.7 -83.1 8.6 -95C21 -106.9 41.9 -96.7 58.3 -82.5" fill="#BB004B"></path></g></svg>