<svg id="visual" viewBox="0 0 900 600" width="900" height="600" xmlns="http://www.w3.org/2000/svg" xmlns:xlink="http://www.w3.org/1999/xlink" version="1.1"><rect x="0" y="0" width="900" height="600" fill="#000000"></rect><path d="M0 499L47 499L47 478L95 478L95 563L142 563L142 490L189 490L189 577L237 577L237 545L284 545L284 458L332 458L332 533L379 533L379 506L426 506L426 531L474 531L474 574L521 574L521 529L568 529L568 568L616 568L616 503L663 503L663 555L711 555L711 556L758 556L758 463L805 463L805 553L853 553L853 462L900 462L900 521L900 601L900 601L853 601L853 601L805 601L805 601L758 601L758 601L711 601L711 601L663 601L663 601L616 601L616 601L568 601L568 601L521 601L521 601L474 601L474 601L426 601L426 601L379 601L379 601L332 601L332 601L284 601L284 601L237 601L237 601L189 601L189 601L142 601L142 601L95 601L95 601L47 601L47 601L0 601Z" fill="#009473"></path></svg>