<svg id="visual" viewBox="0 0 900 600" width="900" height="600" xmlns="http://www.w3.org/2000/svg" xmlns:xlink="http://www.w3.org/1999/xlink" version="1.1"><rect x="0" y="0" width="900" height="600" fill="#040505"></rect><path d="M0 529L5.8 526.5C11.7 524 23.3 519 34.8 521C46.3 523 57.7 532 69.2 541.3C80.7 550.7 92.3 560.3 103.8 564.3C115.3 568.3 126.7 566.7 138.2 558.8C149.7 551 161.3 537 173 541.8C184.7 546.7 196.3 570.3 207.8 573C219.3 575.7 230.7 557.3 242.2 547.2C253.7 537 265.3 535 277 528.5C288.7 522 300.3 511 311.8 503.5C323.3 496 334.7 492 346.2 508.3C357.7 524.7 369.3 561.3 380.8 561.2C392.3 561 403.7 524 415.2 513.5C426.7 503 438.3 519 450 526.8C461.7 534.7 473.3 534.3 484.8 540.8C496.3 547.3 507.7 560.7 519.2 552.8C530.7 545 542.3 516 553.8 513.2C565.3 510.3 576.7 533.7 588.2 547.2C599.7 560.7 611.3 564.3 623 564.8C634.7 565.3 646.3 562.7 657.8 566.5C669.3 570.3 680.7 580.7 692.2 581.3C703.7 582 715.3 573 727 571.7C738.7 570.3 750.3 576.7 761.8 568.2C773.3 559.7 784.7 536.3 796.2 532.8C807.7 529.3 819.3 545.7 830.8 555C842.3 564.3 853.7 566.7 865.2 559.3C876.7 552 888.3 535 894.2 526.5L900 518L900 601L894.2 601C888.3 601 876.7 601 865.2 601C853.7 601 842.3 601 830.8 601C819.3 601 807.7 601 796.2 601C784.7 601 773.3 601 761.8 601C750.3 601 738.7 601 727 601C715.3 601 703.7 601 692.2 601C680.7 601 669.3 601 657.8 601C646.3 601 634.7 601 623 601C611.3 601 599.7 601 588.2 601C576.7 601 565.3 601 553.8 601C542.3 601 530.7 601 519.2 601C507.7 601 496.3 601 484.8 601C473.3 601 461.7 601 450 601C438.3 601 426.7 601 415.2 601C403.7 601 392.3 601 380.8 601C369.3 601 357.7 601 346.2 601C334.7 601 323.3 601 311.8 601C300.3 601 288.7 601 277 601C265.3 601 253.7 601 242.2 601C230.7 601 219.3 601 207.8 601C196.3 601 184.7 601 173 601C161.3 601 149.7 601 138.2 601C126.7 601 115.3 601 103.8 601C92.3 601 80.7 601 69.2 601C57.7 601 46.3 601 34.8 601C23.3 601 11.7 601 5.8 601L0 601Z" fill="#009473" stroke-linecap="round" stroke-linejoin="miter"></path></svg>